# Procedural educational target; metres, X right Y forward Z up
v 0.0 0.0 -0.5
v 0.15450849718747373 0.0 -0.47552825814757677
v 0.16425828296972908 0.05337075140626314 -0.5315509695574393
v 0.12500000000000003 0.09081781600067013 -0.47552825814757677
v 0.08011843019234964 0.11027355881328187 -0.4195055467377142
v 0.04774575140626315 0.14694631307311828 -0.47552825814757677
v 1.0575521907779605e-17 0.17271137956091004 -0.5315509695574393
v -0.04774575140626314 0.1469463130731183 -0.47552825814757677
v -0.08011843019234963 0.11027355881328187 -0.4195055467377142
v -0.12499999999999997 0.09081781600067013 -0.4755282581475767
v -0.16425828296972908 0.05337075140626316 -0.5315509695574393
v -0.15450849718747373 1.8921833652170753e-17 -0.47552825814757677
v -0.12963434317650752 -0.04212075140626308 -0.4195055467377142
v -0.12499999999999999 -0.09081781600067008 -0.4755282581475767
v -0.10151720180899061 -0.13972644118671815 -0.5315509695574393
v -0.04774575140626317 -0.14694631307311828 -0.47552825814757677
v -2.5038935233173445e-17 -0.1363056148140374 -0.4195055467377142
v 0.04774575140626311 -0.14694631307311828 -0.4755282581475767
v 0.10151720180899056 -0.1397264411867182 -0.5315509695574393
v 0.12500000000000003 -0.09081781600067017 -0.4755282581475769
v 0.1296343431765075 -0.04212075140626318 -0.4195055467377142
v 0.29389262614623657 0.0 -0.4045084971874737
v 0.3250157031210645 0.10560400352902073 -0.4703671443077827
v 0.2377641290737884 0.17274575140626314 -0.4045084971874737
v 0.14462075140626315 0.19905338756053664 -0.3386498500671648
v 0.09081781600067013 0.2795084971874737 -0.4045084971874737
v 2.0925646041013638e-17 0.3417417341160388 -0.4703671443077827
v -0.09081781600067008 0.2795084971874737 -0.4045084971874737
v -0.14462075140626313 0.19905338756053664 -0.3386498500671648
v -0.23776412907378833 0.17274575140626314 -0.40450849718747367
v -0.3250157031210645 0.10560400352902077 -0.4703671443077827
v -0.29389262614623657 3.599146639029983e-17 -0.4045084971874737
v -0.23400129125388297 -0.07603162847231935 -0.3386498500671648
v -0.23776412907378836 -0.17274575140626308 -0.40450849718747367
v -0.20087075140626318 -0.2764748705870401 -0.4703671443077827
v -0.09081781600067017 -0.2795084971874738 -0.40450849718747384
v -4.5197461047858585e-17 -0.24604351817643433 -0.3386498500671648
v 0.09081781600067004 -0.27950849718747367 -0.40450849718747367
v 0.20087075140626307 -0.2764748705870402 -0.4703671443077827
v 0.2377641290737884 -0.17274575140626325 -0.40450849718747384
v 0.23400129125388291 -0.07603162847231955 -0.3386498500671648
v 0.4045084971874737 0.0 -0.29389262614623657
v 0.391323026235197 0.12714855881328183 -0.2989441908827569
v 0.32725424859373686 0.2377641290737884 -0.29389262614623657
v 0.23367732735375824 0.32162924859373687 -0.2888410614097162
v 0.12500000000000003 0.3847104421469067 -0.29389262614623657
v 2.5194743072601133e-17 0.41146137956091006 -0.2989441908827569
v -0.12499999999999997 0.3847104421469067 -0.29389262614623657
v -0.2336773273537582 0.32162924859373687 -0.2888410614097162
v -0.3272542485937368 0.23776412907378844 -0.29389262614623657
v -0.391323026235197 0.12714855881328188 -0.2989441908827569
v -0.4045084971874737 4.953800363085458e-17 -0.29389262614623657
v -0.3780978580586164 -0.12285144118671795 -0.2888410614097162
v -0.32725424859373686 -0.23776412907378836 -0.29389262614623657
v -0.2418509307938186 -0.33287924859373685 -0.2989441908827569
v -0.12500000000000006 -0.3847104421469067 -0.29389262614623657
v -7.302978167476035e-17 -0.3975556148140374 -0.2888410614097162
v 0.12499999999999993 -0.3847104421469067 -0.29389262614623657
v 0.24185093079381847 -0.3328792485937369 -0.2989441908827569
v 0.3272542485937368 -0.2377641290737885 -0.29389262614623657
v 0.37809785805861634 -0.12285144118671826 -0.2888410614097162
v 0.47552825814757677 0.0 -0.1545084971874737
v 0.4803792485937368 0.15608467952966876 -0.16411714430778265
v 0.3847104421469067 0.2795084971874737 -0.1545084971874737
v 0.26212629125388287 0.3607858881620055 -0.14489985006716474
v 0.14694631307311828 0.4522542485937368 -0.1545084971874737
v 3.0928493685046017e-17 0.505100633204278 -0.16411714430778265
v -0.14694631307311823 0.45225424859373686 -0.1545084971874737
v -0.26212629125388287 0.3607858881620055 -0.14489985006716474
v -0.38471044214690664 0.2795084971874738 -0.1545084971874737
v -0.4803792485937368 0.1560846795296688 -0.16411714430778265
v -0.47552825814757677 5.823541592445462e-17 -0.1545084971874737
v -0.4241292485937369 -0.13780794661656753 -0.14489985006716474
v -0.3847104421469067 -0.27950849718747367 -0.1545084971874737
v -0.2968907031210645 -0.4086349961318077 -0.16411714430778265
v -0.14694631307311834 -0.4522542485937368 -0.1545084971874737
v -8.192076671822578e-17 -0.44595588309087547 -0.14489985006716474
v 0.14694631307311817 -0.4522542485937368 -0.15450849718747367
v 0.29689070312106436 -0.4086349961318078 -0.16411714430778265
v 0.38471044214690664 -0.27950849718747384 -0.1545084971874737
v 0.4241292485937368 -0.1378079466165679 -0.14489985006716474
v 0.5 0.0 0.0
v 0.5611233446141406 0.18232002668121897 0.0
v 0.4045084971874737 0.29389262614623657 0.0
v 0.240991953439914 0.3316969676937285 0.0
v 0.15450849718747373 0.47552825814757677 0.0
v 3.612708057484692e-17 0.59 0.0
v -0.15450849718747367 0.4755282581475768 0.0
v -0.24099195343991395 0.3316969676937285 0.0
v -0.4045084971874736 0.29389262614623657 0.0
v -0.5611233446141406 0.18232002668121902 0.0
v -0.5 6.123233995736766e-17 0.0
v -0.38993317168101305 -0.12669696769372824 0.0
v -0.40450849718747367 -0.29389262614623646 0.0
v -0.3467932988525592 -0.4773200266812189 0.0
v -0.1545084971874738 -0.4755282581475769 0.0
v -7.531577814756223e-17 -0.41000000000000003 0.0
v 0.1545084971874736 -0.4755282581475767 0.0
v 0.346793298852559 -0.47732002668121903 0.0
v 0.4045084971874738 -0.29389262614623674 0.0
v 0.389933171681013 -0.12669696769372857 0.0
v 0.47552825814757677 0.0 0.1545084971874737
v 0.4803792485937368 0.15608467952966876 0.16411714430778265
v 0.3847104421469067 0.2795084971874737 0.1545084971874737
v 0.26212629125388287 0.3607858881620055 0.14489985006716474
v 0.14694631307311828 0.4522542485937368 0.1545084971874737
v 3.0928493685046017e-17 0.505100633204278 0.16411714430778265
v -0.14694631307311823 0.45225424859373686 0.1545084971874737
v -0.26212629125388287 0.3607858881620055 0.14489985006716474
v -0.38471044214690664 0.2795084971874738 0.1545084971874737
v -0.4803792485937368 0.1560846795296688 0.16411714430778265
v -0.47552825814757677 5.823541592445462e-17 0.1545084971874737
v -0.4241292485937369 -0.13780794661656753 0.14489985006716474
v -0.3847104421469067 -0.27950849718747367 0.1545084971874737
v -0.2968907031210645 -0.4086349961318077 0.16411714430778265
v -0.14694631307311834 -0.4522542485937368 0.1545084971874737
v -8.192076671822578e-17 -0.44595588309087547 0.14489985006716474
v 0.14694631307311817 -0.4522542485937368 0.15450849718747367
v 0.29689070312106436 -0.4086349961318078 0.16411714430778265
v 0.38471044214690664 -0.27950849718747384 0.1545084971874737
v 0.4241292485937368 -0.1378079466165679 0.14489985006716474
v 0.4045084971874737 0.0 0.29389262614623657
v 0.391323026235197 0.12714855881328183 0.2989441908827569
v 0.32725424859373686 0.2377641290737884 0.29389262614623657
v 0.23367732735375824 0.32162924859373687 0.2888410614097162
v 0.12500000000000003 0.3847104421469067 0.29389262614623657
v 2.5194743072601133e-17 0.41146137956091006 0.2989441908827569
v -0.12499999999999997 0.3847104421469067 0.29389262614623657
v -0.2336773273537582 0.32162924859373687 0.2888410614097162
v -0.3272542485937368 0.23776412907378844 0.29389262614623657
v -0.391323026235197 0.12714855881328188 0.2989441908827569
v -0.4045084971874737 4.953800363085458e-17 0.29389262614623657
v -0.3780978580586164 -0.12285144118671795 0.2888410614097162
v -0.32725424859373686 -0.23776412907378836 0.29389262614623657
v -0.2418509307938186 -0.33287924859373685 0.2989441908827569
v -0.12500000000000006 -0.3847104421469067 0.29389262614623657
v -7.302978167476035e-17 -0.3975556148140374 0.2888410614097162
v 0.12499999999999993 -0.3847104421469067 0.29389262614623657
v 0.24185093079381847 -0.3328792485937369 0.2989441908827569
v 0.3272542485937368 -0.2377641290737885 0.29389262614623657
v 0.37809785805861634 -0.12285144118671826 0.2888410614097162
v 0.29389262614623657 0.0 0.4045084971874737
v 0.3250157031210645 0.10560400352902073 0.4703671443077827
v 0.2377641290737884 0.17274575140626314 0.4045084971874737
v 0.14462075140626315 0.19905338756053664 0.3386498500671648
v 0.09081781600067013 0.2795084971874737 0.4045084971874737
v 2.0925646041013638e-17 0.3417417341160388 0.4703671443077827
v -0.09081781600067008 0.2795084971874737 0.4045084971874737
v -0.14462075140626313 0.19905338756053664 0.3386498500671648
v -0.23776412907378833 0.17274575140626314 0.40450849718747367
v -0.3250157031210645 0.10560400352902077 0.4703671443077827
v -0.29389262614623657 3.599146639029983e-17 0.4045084971874737
v -0.23400129125388297 -0.07603162847231935 0.3386498500671648
v -0.23776412907378836 -0.17274575140626308 0.40450849718747367
v -0.20087075140626318 -0.2764748705870401 0.4703671443077827
v -0.09081781600067017 -0.2795084971874738 0.40450849718747384
v -4.5197461047858585e-17 -0.24604351817643433 0.3386498500671648
v 0.09081781600067004 -0.27950849718747367 0.40450849718747367
v 0.20087075140626307 -0.2764748705870402 0.4703671443077827
v 0.2377641290737884 -0.17274575140626325 0.40450849718747384
v 0.23400129125388291 -0.07603162847231955 0.3386498500671648
v 0.15450849718747373 0.0 0.47552825814757677
v 0.16425828296972908 0.05337075140626314 0.5315509695574393
v 0.12500000000000003 0.09081781600067013 0.47552825814757677
v 0.08011843019234964 0.11027355881328187 0.4195055467377142
v 0.04774575140626315 0.14694631307311828 0.47552825814757677
v 1.0575521907779605e-17 0.17271137956091004 0.5315509695574393
v -0.04774575140626314 0.1469463130731183 0.47552825814757677
v -0.08011843019234963 0.11027355881328187 0.4195055467377142
v -0.12499999999999997 0.09081781600067013 0.4755282581475767
v -0.16425828296972908 0.05337075140626316 0.5315509695574393
v -0.15450849718747373 1.8921833652170753e-17 0.47552825814757677
v -0.12963434317650752 -0.04212075140626308 0.4195055467377142
v -0.12499999999999999 -0.09081781600067008 0.4755282581475767
v -0.10151720180899061 -0.13972644118671815 0.5315509695574393
v -0.04774575140626317 -0.14694631307311828 0.47552825814757677
v -2.5038935233173445e-17 -0.1363056148140374 0.4195055467377142
v 0.04774575140626311 -0.14694631307311828 0.4755282581475767
v 0.10151720180899056 -0.1397264411867182 0.5315509695574393
v 0.12500000000000003 -0.09081781600067017 0.4755282581475769
v 0.1296343431765075 -0.04212075140626318 0.4195055467377142
v 0.0 0.0 0.5
f 1 3 2
f 2 3 23
f 2 23 22
f 22 23 43
f 22 43 42
f 42 43 63
f 42 63 62
f 62 63 83
f 62 83 82
f 82 83 103
f 82 103 102
f 102 103 123
f 102 123 122
f 122 123 143
f 122 143 142
f 142 143 163
f 142 163 162
f 182 162 163
f 1 4 3
f 3 4 24
f 3 24 23
f 23 24 44
f 23 44 43
f 43 44 64
f 43 64 63
f 63 64 84
f 63 84 83
f 83 84 104
f 83 104 103
f 103 104 124
f 103 124 123
f 123 124 144
f 123 144 143
f 143 144 164
f 143 164 163
f 182 163 164
f 1 5 4
f 4 5 25
f 4 25 24
f 24 25 45
f 24 45 44
f 44 45 65
f 44 65 64
f 64 65 85
f 64 85 84
f 84 85 105
f 84 105 104
f 104 105 125
f 104 125 124
f 124 125 145
f 124 145 144
f 144 145 165
f 144 165 164
f 182 164 165
f 1 6 5
f 5 6 26
f 5 26 25
f 25 26 46
f 25 46 45
f 45 46 66
f 45 66 65
f 65 66 86
f 65 86 85
f 85 86 106
f 85 106 105
f 105 106 126
f 105 126 125
f 125 126 146
f 125 146 145
f 145 146 166
f 145 166 165
f 182 165 166
f 1 7 6
f 6 7 27
f 6 27 26
f 26 27 47
f 26 47 46
f 46 47 67
f 46 67 66
f 66 67 87
f 66 87 86
f 86 87 107
f 86 107 106
f 106 107 127
f 106 127 126
f 126 127 147
f 126 147 146
f 146 147 167
f 146 167 166
f 182 166 167
f 1 8 7
f 7 8 28
f 7 28 27
f 27 28 48
f 27 48 47
f 47 48 68
f 47 68 67
f 67 68 88
f 67 88 87
f 87 88 108
f 87 108 107
f 107 108 128
f 107 128 127
f 127 128 148
f 127 148 147
f 147 148 168
f 147 168 167
f 182 167 168
f 1 9 8
f 8 9 29
f 8 29 28
f 28 29 49
f 28 49 48
f 48 49 69
f 48 69 68
f 68 69 89
f 68 89 88
f 88 89 109
f 88 109 108
f 108 109 129
f 108 129 128
f 128 129 149
f 128 149 148
f 148 149 169
f 148 169 168
f 182 168 169
f 1 10 9
f 9 10 30
f 9 30 29
f 29 30 50
f 29 50 49
f 49 50 70
f 49 70 69
f 69 70 90
f 69 90 89
f 89 90 110
f 89 110 109
f 109 110 130
f 109 130 129
f 129 130 150
f 129 150 149
f 149 150 170
f 149 170 169
f 182 169 170
f 1 11 10
f 10 11 31
f 10 31 30
f 30 31 51
f 30 51 50
f 50 51 71
f 50 71 70
f 70 71 91
f 70 91 90
f 90 91 111
f 90 111 110
f 110 111 131
f 110 131 130
f 130 131 151
f 130 151 150
f 150 151 171
f 150 171 170
f 182 170 171
f 1 12 11
f 11 12 32
f 11 32 31
f 31 32 52
f 31 52 51
f 51 52 72
f 51 72 71
f 71 72 92
f 71 92 91
f 91 92 112
f 91 112 111
f 111 112 132
f 111 132 131
f 131 132 152
f 131 152 151
f 151 152 172
f 151 172 171
f 182 171 172
f 1 13 12
f 12 13 33
f 12 33 32
f 32 33 53
f 32 53 52
f 52 53 73
f 52 73 72
f 72 73 93
f 72 93 92
f 92 93 113
f 92 113 112
f 112 113 133
f 112 133 132
f 132 133 153
f 132 153 152
f 152 153 173
f 152 173 172
f 182 172 173
f 1 14 13
f 13 14 34
f 13 34 33
f 33 34 54
f 33 54 53
f 53 54 74
f 53 74 73
f 73 74 94
f 73 94 93
f 93 94 114
f 93 114 113
f 113 114 134
f 113 134 133
f 133 134 154
f 133 154 153
f 153 154 174
f 153 174 173
f 182 173 174
f 1 15 14
f 14 15 35
f 14 35 34
f 34 35 55
f 34 55 54
f 54 55 75
f 54 75 74
f 74 75 95
f 74 95 94
f 94 95 115
f 94 115 114
f 114 115 135
f 114 135 134
f 134 135 155
f 134 155 154
f 154 155 175
f 154 175 174
f 182 174 175
f 1 16 15
f 15 16 36
f 15 36 35
f 35 36 56
f 35 56 55
f 55 56 76
f 55 76 75
f 75 76 96
f 75 96 95
f 95 96 116
f 95 116 115
f 115 116 136
f 115 136 135
f 135 136 156
f 135 156 155
f 155 156 176
f 155 176 175
f 182 175 176
f 1 17 16
f 16 17 37
f 16 37 36
f 36 37 57
f 36 57 56
f 56 57 77
f 56 77 76
f 76 77 97
f 76 97 96
f 96 97 117
f 96 117 116
f 116 117 137
f 116 137 136
f 136 137 157
f 136 157 156
f 156 157 177
f 156 177 176
f 182 176 177
f 1 18 17
f 17 18 38
f 17 38 37
f 37 38 58
f 37 58 57
f 57 58 78
f 57 78 77
f 77 78 98
f 77 98 97
f 97 98 118
f 97 118 117
f 117 118 138
f 117 138 137
f 137 138 158
f 137 158 157
f 157 158 178
f 157 178 177
f 182 177 178
f 1 19 18
f 18 19 39
f 18 39 38
f 38 39 59
f 38 59 58
f 58 59 79
f 58 79 78
f 78 79 99
f 78 99 98
f 98 99 119
f 98 119 118
f 118 119 139
f 118 139 138
f 138 139 159
f 138 159 158
f 158 159 179
f 158 179 178
f 182 178 179
f 1 20 19
f 19 20 40
f 19 40 39
f 39 40 60
f 39 60 59
f 59 60 80
f 59 80 79
f 79 80 100
f 79 100 99
f 99 100 120
f 99 120 119
f 119 120 140
f 119 140 139
f 139 140 160
f 139 160 159
f 159 160 180
f 159 180 179
f 182 179 180
f 1 21 20
f 20 21 41
f 20 41 40
f 40 41 61
f 40 61 60
f 60 61 81
f 60 81 80
f 80 81 101
f 80 101 100
f 100 101 121
f 100 121 120
f 120 121 141
f 120 141 140
f 140 141 161
f 140 161 160
f 160 161 181
f 160 181 180
f 182 180 181
f 1 2 21
f 21 2 22
f 21 22 41
f 41 22 42
f 41 42 61
f 61 42 62
f 61 62 81
f 81 62 82
f 81 82 101
f 101 82 102
f 101 102 121
f 121 102 122
f 121 122 141
f 141 122 142
f 141 142 161
f 161 142 162
f 161 162 181
f 182 181 162
