# Procedural educational target; metres, X right Y forward Z up
v -0.6 -0.4 0.32
v 0.6 -0.4 0.32
v -0.6 0.4 0.32
v 0.6 0.4 0.32
v -0.6 -0.4 0.45
v 0.6 -0.4 0.45
v -0.6 0.4 0.45
v 0.6 0.4 0.45
v -0.54 -0.34 -0.45
v -0.42 -0.34 -0.45
v -0.54 -0.22000000000000003 -0.45
v -0.42 -0.22000000000000003 -0.45
v -0.54 -0.34 0.32
v -0.42 -0.34 0.32
v -0.54 -0.22000000000000003 0.32
v -0.42 -0.22000000000000003 0.32
v -0.54 0.22000000000000003 -0.45
v -0.42 0.22000000000000003 -0.45
v -0.54 0.34 -0.45
v -0.42 0.34 -0.45
v -0.54 0.22000000000000003 0.32
v -0.42 0.22000000000000003 0.32
v -0.54 0.34 0.32
v -0.42 0.34 0.32
v 0.42 -0.34 -0.45
v 0.54 -0.34 -0.45
v 0.42 -0.22000000000000003 -0.45
v 0.54 -0.22000000000000003 -0.45
v 0.42 -0.34 0.32
v 0.54 -0.34 0.32
v 0.42 -0.22000000000000003 0.32
v 0.54 -0.22000000000000003 0.32
v 0.42 0.22000000000000003 -0.45
v 0.54 0.22000000000000003 -0.45
v 0.42 0.34 -0.45
v 0.54 0.34 -0.45
v 0.42 0.22000000000000003 0.32
v 0.54 0.22000000000000003 0.32
v 0.42 0.34 0.32
v 0.54 0.34 0.32
f 1 3 4
f 1 4 2
f 5 6 8
f 5 8 7
f 1 2 6
f 1 6 5
f 3 7 8
f 3 8 4
f 1 5 7
f 1 7 3
f 2 4 8
f 2 8 6
f 9 11 12
f 9 12 10
f 13 14 16
f 13 16 15
f 9 10 14
f 9 14 13
f 11 15 16
f 11 16 12
f 9 13 15
f 9 15 11
f 10 12 16
f 10 16 14
f 17 19 20
f 17 20 18
f 21 22 24
f 21 24 23
f 17 18 22
f 17 22 21
f 19 23 24
f 19 24 20
f 17 21 23
f 17 23 19
f 18 20 24
f 18 24 22
f 25 27 28
f 25 28 26
f 29 30 32
f 29 32 31
f 25 26 30
f 25 30 29
f 27 31 32
f 27 32 28
f 25 29 31
f 25 31 27
f 26 28 32
f 26 32 30
f 33 35 36
f 33 36 34
f 37 38 40
f 37 40 39
f 33 34 38
f 33 38 37
f 35 39 40
f 35 40 36
f 33 37 39
f 33 39 35
f 34 36 40
f 34 40 38
