# Procedural educational target; metres, X right Y forward Z up
v -0.6 0.16 0.0
v -0.6 0.15454813220625094 0.04141104721640332
v -0.6 0.13856406460551018 0.07999999999999999
v -0.6 0.11313708498984762 0.11313708498984759
v -0.6 0.08000000000000002 0.13856406460551018
v -0.6 0.04141104721640332 0.15454813220625094
v -0.6 9.797174393178826e-18 0.16
v -0.6 -0.041411047216403304 0.15454813220625094
v -0.6 -0.07999999999999997 0.13856406460551018
v -0.6 -0.11313708498984759 0.11313708498984762
v -0.6 -0.13856406460551018 0.07999999999999999
v -0.6 -0.1545481322062509 0.04141104721640337
v -0.6 -0.16 1.959434878635765e-17
v -0.6 -0.15454813220625094 -0.041411047216403325
v -0.6 -0.1385640646055102 -0.07999999999999996
v -0.6 -0.11313708498984766 -0.11313708498984754
v -0.6 -0.08000000000000007 -0.13856406460551016
v -0.6 -0.041411047216403304 -0.15454813220625094
v -0.6 -2.9391523179536474e-17 -0.16
v -0.6 0.04141104721640325 -0.15454813220625094
v -0.6 0.08000000000000002 -0.13856406460551018
v -0.6 0.11313708498984758 -0.11313708498984763
v -0.6 0.13856406460551016 -0.08000000000000007
v -0.6 0.1545481322062509 -0.04141104721640345
v -0.6 0.24 0.0
v -0.6 0.2318221983093764 0.06211657082460498
v -0.6 0.20784609690826528 0.11999999999999998
v -0.6 0.16970562748477142 0.1697056274847714
v -0.6 0.12000000000000002 0.20784609690826525
v -0.6 0.06211657082460498 0.2318221983093764
v -0.6 1.4695761589768237e-17 0.24
v -0.6 -0.06211657082460495 0.2318221983093764
v -0.6 -0.11999999999999995 0.20784609690826528
v -0.6 -0.1697056274847714 0.16970562748477142
v -0.6 -0.20784609690826528 0.11999999999999998
v -0.6 -0.23182219830937636 0.06211657082460504
v -0.6 -0.24 2.9391523179536474e-17
v -0.6 -0.2318221983093764 -0.06211657082460499
v -0.6 -0.2078460969082653 -0.11999999999999994
v -0.6 -0.1697056274847715 -0.1697056274847713
v -0.6 -0.1200000000000001 -0.2078460969082652
v -0.6 -0.06211657082460495 -0.2318221983093764
v -0.6 -4.408728476930471e-17 -0.24
v -0.6 0.062116570824604866 -0.23182219830937642
v -0.6 0.12000000000000002 -0.20784609690826525
v -0.6 0.16970562748477136 -0.16970562748477144
v -0.6 0.2078460969082652 -0.1200000000000001
v -0.6 0.23182219830937634 -0.06211657082460517
v 0.6 0.16 0.0
v 0.6 0.15454813220625094 0.04141104721640332
v 0.6 0.13856406460551018 0.07999999999999999
v 0.6 0.11313708498984762 0.11313708498984759
v 0.6 0.08000000000000002 0.13856406460551018
v 0.6 0.04141104721640332 0.15454813220625094
v 0.6 9.797174393178826e-18 0.16
v 0.6 -0.041411047216403304 0.15454813220625094
v 0.6 -0.07999999999999997 0.13856406460551018
v 0.6 -0.11313708498984759 0.11313708498984762
v 0.6 -0.13856406460551018 0.07999999999999999
v 0.6 -0.1545481322062509 0.04141104721640337
v 0.6 -0.16 1.959434878635765e-17
v 0.6 -0.15454813220625094 -0.041411047216403325
v 0.6 -0.1385640646055102 -0.07999999999999996
v 0.6 -0.11313708498984766 -0.11313708498984754
v 0.6 -0.08000000000000007 -0.13856406460551016
v 0.6 -0.041411047216403304 -0.15454813220625094
v 0.6 -2.9391523179536474e-17 -0.16
v 0.6 0.04141104721640325 -0.15454813220625094
v 0.6 0.08000000000000002 -0.13856406460551018
v 0.6 0.11313708498984758 -0.11313708498984763
v 0.6 0.13856406460551016 -0.08000000000000007
v 0.6 0.1545481322062509 -0.04141104721640345
v 0.6 0.24 0.0
v 0.6 0.2318221983093764 0.06211657082460498
v 0.6 0.20784609690826528 0.11999999999999998
v 0.6 0.16970562748477142 0.1697056274847714
v 0.6 0.12000000000000002 0.20784609690826525
v 0.6 0.06211657082460498 0.2318221983093764
v 0.6 1.4695761589768237e-17 0.24
v 0.6 -0.06211657082460495 0.2318221983093764
v 0.6 -0.11999999999999995 0.20784609690826528
v 0.6 -0.1697056274847714 0.16970562748477142
v 0.6 -0.20784609690826528 0.11999999999999998
v 0.6 -0.23182219830937636 0.06211657082460504
v 0.6 -0.24 2.9391523179536474e-17
v 0.6 -0.2318221983093764 -0.06211657082460499
v 0.6 -0.2078460969082653 -0.11999999999999994
v 0.6 -0.1697056274847715 -0.1697056274847713
v 0.6 -0.1200000000000001 -0.2078460969082652
v 0.6 -0.06211657082460495 -0.2318221983093764
v 0.6 -4.408728476930471e-17 -0.24
v 0.6 0.062116570824604866 -0.23182219830937642
v 0.6 0.12000000000000002 -0.20784609690826525
v 0.6 0.16970562748477136 -0.16970562748477144
v 0.6 0.2078460969082652 -0.1200000000000001
v 0.6 0.23182219830937634 -0.06211657082460517
f 25 26 74
f 25 74 73
f 1 49 50
f 1 50 2
f 1 2 26
f 1 26 25
f 49 73 74
f 49 74 50
f 26 27 75
f 26 75 74
f 2 50 51
f 2 51 3
f 2 3 27
f 2 27 26
f 50 74 75
f 50 75 51
f 27 28 76
f 27 76 75
f 3 51 52
f 3 52 4
f 3 4 28
f 3 28 27
f 51 75 76
f 51 76 52
f 28 29 77
f 28 77 76
f 4 52 53
f 4 53 5
f 4 5 29
f 4 29 28
f 52 76 77
f 52 77 53
f 29 30 78
f 29 78 77
f 5 53 54
f 5 54 6
f 5 6 30
f 5 30 29
f 53 77 78
f 53 78 54
f 30 31 79
f 30 79 78
f 6 54 55
f 6 55 7
f 6 7 31
f 6 31 30
f 54 78 79
f 54 79 55
f 31 32 80
f 31 80 79
f 7 55 56
f 7 56 8
f 7 8 32
f 7 32 31
f 55 79 80
f 55 80 56
f 32 33 81
f 32 81 80
f 8 56 57
f 8 57 9
f 8 9 33
f 8 33 32
f 56 80 81
f 56 81 57
f 33 34 82
f 33 82 81
f 9 57 58
f 9 58 10
f 9 10 34
f 9 34 33
f 57 81 82
f 57 82 58
f 34 35 83
f 34 83 82
f 10 58 59
f 10 59 11
f 10 11 35
f 10 35 34
f 58 82 83
f 58 83 59
f 35 36 84
f 35 84 83
f 11 59 60
f 11 60 12
f 11 12 36
f 11 36 35
f 59 83 84
f 59 84 60
f 36 37 85
f 36 85 84
f 12 60 61
f 12 61 13
f 12 13 37
f 12 37 36
f 60 84 85
f 60 85 61
f 37 38 86
f 37 86 85
f 13 61 62
f 13 62 14
f 13 14 38
f 13 38 37
f 61 85 86
f 61 86 62
f 38 39 87
f 38 87 86
f 14 62 63
f 14 63 15
f 14 15 39
f 14 39 38
f 62 86 87
f 62 87 63
f 39 40 88
f 39 88 87
f 15 63 64
f 15 64 16
f 15 16 40
f 15 40 39
f 63 87 88
f 63 88 64
f 40 41 89
f 40 89 88
f 16 64 65
f 16 65 17
f 16 17 41
f 16 41 40
f 64 88 89
f 64 89 65
f 41 42 90
f 41 90 89
f 17 65 66
f 17 66 18
f 17 18 42
f 17 42 41
f 65 89 90
f 65 90 66
f 42 43 91
f 42 91 90
f 18 66 67
f 18 67 19
f 18 19 43
f 18 43 42
f 66 90 91
f 66 91 67
f 43 44 92
f 43 92 91
f 19 67 68
f 19 68 20
f 19 20 44
f 19 44 43
f 67 91 92
f 67 92 68
f 44 45 93
f 44 93 92
f 20 68 69
f 20 69 21
f 20 21 45
f 20 45 44
f 68 92 93
f 68 93 69
f 45 46 94
f 45 94 93
f 21 69 70
f 21 70 22
f 21 22 46
f 21 46 45
f 69 93 94
f 69 94 70
f 46 47 95
f 46 95 94
f 22 70 71
f 22 71 23
f 22 23 47
f 22 47 46
f 70 94 95
f 70 95 71
f 47 48 96
f 47 96 95
f 23 71 72
f 23 72 24
f 23 24 48
f 23 48 47
f 71 95 96
f 71 96 72
f 48 25 73
f 48 73 96
f 24 72 49
f 24 49 1
f 24 1 25
f 24 25 48
f 72 96 73
f 72 73 49
